<svg width="35" height="35" viewBox="0 0 35 35" fill="none" xmlns="http://www.w3.org/2000/svg">
<g id="local_mall">
<mask id="mask0_19_22" style="mask-type:alpha" maskUnits="userSpaceOnUse" x="0" y="0" width="35" height="35">
<rect id="Bounding box" width="35" height="35" fill="#FC4B90"/>
</mask>
<g mask="url(#mask0_19_22)">
<path id="local_mall_2" d="M6.64138 32.3015C5.95234 32.3015 5.36609 32.0598 4.88263 31.5764C4.39919 31.0929 4.15747 30.5067 4.15747 29.8176V10.7126C4.15747 10.0212 4.39919 9.43292 4.88263 8.94774C5.36609 8.46257 5.95234 8.21999 6.64138 8.21999H10.4775C10.4775 6.29511 11.1356 4.64339 12.452 3.26483C13.7684 1.88629 15.3897 1.19702 17.3161 1.19702C19.3134 1.19702 21.014 1.87365 22.4178 3.22691C23.8215 4.58015 24.5234 6.24451 24.5234 8.21999H28.3595C29.0509 8.21999 29.6392 8.46257 30.1243 8.94774C30.6095 9.43292 30.8521 10.0212 30.8521 10.7126V29.8176C30.8521 30.5067 30.6095 31.0929 30.1243 31.5764C29.6392 32.0598 29.0509 32.3015 28.3595 32.3015H6.64138ZM6.64138 29.8176H28.3595V10.7126H6.64138V29.8176ZM17.4983 19.5586C19.4489 19.5586 21.1378 18.8455 22.565 17.4193C23.9921 15.9931 24.7057 14.3045 24.7057 12.3533H22.2218C22.2218 13.6378 21.7575 14.7443 20.8288 15.673C19.9002 16.6016 18.7907 17.0659 17.5004 17.0659C16.2101 17.0659 15.1006 16.6015 14.172 15.6726C13.2434 14.7437 12.7791 13.6373 12.7791 12.3533H10.2952C10.2952 14.3025 11.008 15.9907 12.4338 17.4178C13.8595 18.845 15.5477 19.5586 17.4983 19.5586ZM12.9614 8.21999H22.0395C22.0395 6.93552 21.6055 5.85789 20.7377 4.98712C19.8698 4.11635 18.7907 3.68096 17.5004 3.68096C16.2101 3.68096 15.131 4.11586 14.2632 4.98566C13.3953 5.85546 12.9614 6.93357 12.9614 8.21999Z" fill="#FC4B90"/>
</g>
</g>
</svg>
