<svg width="134" height="81" viewBox="0 0 134 81" fill="none" xmlns="http://www.w3.org/2000/svg">
<mask id="mask0_19_3" style="mask-type:alpha" maskUnits="userSpaceOnUse" x="40" y="0" width="54" height="53">
<rect x="40.988" width="52.0239" height="52.0239" fill="#D9D9D9"/>
</mask>
<g mask="url(#mask0_19_3)">
<path d="M60.3516 18.093L65.7598 5.88257H68.24L73.6843 18.093H60.3516ZM65.5548 44.7544L45.7442 20.9832H65.5548V44.7544ZM68.445 44.7544V20.9832H88.2917L68.445 44.7544ZM76.9915 18.093L71.4805 5.88257H82.5443L88.6593 18.093H76.9915ZM45.3767 18.093L51.4555 5.88257H62.5193L57.0648 18.093H45.3767Z" fill="#1C1B1F"/>
</g>
<path d="M2.38 67.7039C1.68667 68.6106 1.34 69.5906 1.34 70.6439C1.34 71.8973 1.86667 72.8706 2.92 73.5639C3.53333 73.9773 4.22667 74.1839 5 74.1839C5.78667 74.1839 6.46667 74.0306 7.04 73.7239C8.12 73.1639 8.72667 72.2239 8.86 70.9039C8.87333 70.8106 8.88 70.7173 8.88 70.6239C8.88 70.1306 8.74 69.5973 8.46 69.0239C8.19333 68.4506 7.75333 67.9239 7.14 67.4439L3.54 64.6039C2.75333 63.9906 2.36 63.1973 2.36 62.2239C2.36 61.2506 2.67333 60.4306 3.3 59.7639C3.92667 59.0839 4.77333 58.7439 5.84 58.7439C6.37333 58.7439 6.95333 58.8106 7.58 58.9439H8.38L8.42 61.4039H8.22C8.20667 60.7639 7.97333 60.2639 7.52 59.9039C7.08 59.5306 6.52 59.3439 5.84 59.3439C5.17333 59.3439 4.61333 59.5706 4.16 60.0239C3.70667 60.4639 3.48 61.0373 3.48 61.7439C3.48 62.4373 3.77333 63.0173 4.36 63.4839L8.06 66.4039C9.52667 67.5639 10.26 68.9639 10.26 70.6039C10.26 71.8306 9.77333 72.8839 8.8 73.7639C7.96 74.5239 6.84 74.9039 5.44 74.9039C4.58667 74.9039 3.82667 74.7439 3.16 74.4239C1.90667 73.8373 1.15333 72.8373 0.9 71.4239C0.86 71.2106 0.84 70.9439 0.84 70.6239C0.84 70.2906 0.933333 69.8439 1.12 69.2839C1.30667 68.7106 1.66667 68.1373 2.2 67.5639L2.38 67.7039ZM12.6366 72.8239C12.9832 72.8239 13.2766 72.7039 13.5166 72.4639C13.7699 72.2106 13.9032 71.9106 13.9166 71.5639V60.3639C13.9166 60.0439 13.7899 59.7773 13.5366 59.5639C13.2832 59.3373 12.9832 59.2239 12.6366 59.2239H12.3966L12.3766 59.0239H18.2366C18.6499 59.0239 19.0966 58.9839 19.5766 58.9039C20.0699 58.8239 20.4166 58.7439 20.6166 58.6639V61.1839H20.4166V60.8239C20.4166 60.5039 20.3032 60.2306 20.0766 60.0039C19.8632 59.7773 19.6032 59.6573 19.2966 59.6439H15.2166V65.8239H18.5966C18.8632 65.8106 19.0899 65.7106 19.2766 65.5239C19.4632 65.3373 19.5566 65.1039 19.5566 64.8239V64.5439H19.7566V67.7039H19.5566V67.4039C19.5566 67.1373 19.4632 66.9106 19.2766 66.7239C19.1032 66.5373 18.8832 66.4373 18.6166 66.4239H15.2166V72.4039H18.0766C19.0632 72.4039 19.8166 72.1839 20.3366 71.7439C20.8566 71.3039 21.2899 70.6506 21.6366 69.7839H21.8366L20.6766 73.0239H12.3766V72.8239H12.6366ZM30.7042 59.0239C32.8376 59.0239 34.5642 59.6706 35.8842 60.9639C37.2176 62.2439 37.8842 63.9306 37.8842 66.0239C37.8842 68.1173 37.2176 69.8106 35.8842 71.1039C34.5642 72.3839 32.8376 73.0239 30.7042 73.0239H23.9242V72.8239H24.1842C24.5309 72.8239 24.8242 72.7039 25.0642 72.4639C25.3176 72.2106 25.4509 71.9106 25.4642 71.5639V60.3639C25.4642 60.0439 25.3309 59.7773 25.0642 59.5639C24.8109 59.3373 24.5176 59.2239 24.1842 59.2239H23.9442L23.9242 59.0239H30.7042ZM26.7642 59.6239V72.4239H30.7042C31.8242 72.4239 32.8109 72.1573 33.6642 71.6239C34.5309 71.0906 35.1976 70.3439 35.6642 69.3839C36.1442 68.4106 36.3842 67.2906 36.3842 66.0239C36.3842 64.1039 35.8576 62.5573 34.8042 61.3839C33.7642 60.2106 32.3976 59.6239 30.7042 59.6239H26.7642ZM40.1264 72.8239C40.4731 72.8239 40.7664 72.7039 41.0064 72.4639C41.2597 72.2106 41.3931 71.9106 41.4064 71.5639V60.3639C41.4064 60.0439 41.2797 59.7773 41.0264 59.5639C40.7731 59.3373 40.4731 59.2239 40.1264 59.2239H39.8864L39.8664 59.0239H45.7264C46.1397 59.0239 46.5864 58.9839 47.0664 58.9039C47.5597 58.8239 47.9064 58.7439 48.1064 58.6639V61.1839H47.9064V60.8239C47.9064 60.5039 47.7931 60.2306 47.5664 60.0039C47.3531 59.7773 47.0931 59.6573 46.7864 59.6439H42.7064V65.8239H46.0864C46.3531 65.8106 46.5797 65.7106 46.7664 65.5239C46.9531 65.3373 47.0464 65.1039 47.0464 64.8239V64.5439H47.2464V67.7039H47.0464V67.4039C47.0464 67.1373 46.9531 66.9106 46.7664 66.7239C46.5931 66.5373 46.3731 66.4373 46.1064 66.4239H42.7064V72.4039H45.5664C46.5531 72.4039 47.3064 72.1839 47.8264 71.7439C48.3464 71.3039 48.7797 70.6506 49.1264 69.7839H49.3264L48.1664 73.0239H39.8664V72.8239H40.1264ZM55.5341 59.6439H54.2541V71.5639C54.2541 71.9106 54.3741 72.2106 54.6141 72.4639C54.8674 72.7039 55.1741 72.8239 55.5341 72.8239H55.7741L55.7941 73.0239H51.4141V72.8239H51.6741C52.0207 72.8239 52.3141 72.7039 52.5541 72.4639C52.8074 72.2239 52.9407 71.9306 52.9541 71.5839V60.4839C52.9407 60.1373 52.8074 59.8439 52.5541 59.6039C52.3141 59.3506 52.0207 59.2239 51.6741 59.2239H51.4141V59.0239H56.8141C58.0274 59.0239 58.9807 59.3639 59.6741 60.0439C60.3674 60.7106 60.7141 61.5839 60.7141 62.6639C60.7141 63.7306 60.3807 64.6573 59.7141 65.4439C59.0607 66.2173 58.2607 66.6039 57.3141 66.6039C57.5141 66.6973 57.7474 66.8839 58.0141 67.1639C58.2941 67.4306 58.5407 67.7106 58.7541 68.0039C59.9007 69.6439 60.6474 70.6573 60.9941 71.0439C61.3407 71.4173 61.5874 71.6773 61.7341 71.8239C61.8807 71.9573 62.0407 72.0906 62.2141 72.2239C62.3874 72.3573 62.5607 72.4639 62.7341 72.5439C63.1207 72.7306 63.5341 72.8239 63.9741 72.8239V73.0239H62.8741C62.3007 73.0239 61.7674 72.9239 61.2741 72.7239C60.7807 72.5106 60.4074 72.2973 60.1541 72.0839C59.9141 71.8573 59.7007 71.6439 59.5141 71.4439C59.3407 71.2306 58.8474 70.5373 58.0341 69.3639C57.2207 68.1906 56.7474 67.5239 56.6141 67.3639C56.4807 67.1906 56.3407 67.0239 56.1941 66.8639C55.7674 66.4106 55.3407 66.1839 54.9141 66.1839V65.9839C55.0207 65.9973 55.1607 66.0039 55.3341 66.0039C55.5074 66.0039 55.7207 65.9973 55.9741 65.9839C57.6274 65.9439 58.6674 65.2506 59.0941 63.9039C59.1741 63.6373 59.2141 63.3906 59.2141 63.1639C59.2141 62.9239 59.2141 62.7706 59.2141 62.7039C59.1874 61.8106 58.9541 61.0906 58.5141 60.5439C58.0741 59.9973 57.4807 59.7039 56.7341 59.6639C56.4141 59.6506 56.0141 59.6439 55.5341 59.6439ZM77.6638 72.8239H77.8238V73.0239H73.3238V72.8239H73.5038C73.7838 72.8239 73.9904 72.7373 74.1238 72.5639C74.2704 72.3773 74.3438 72.2039 74.3438 72.0439C74.3438 71.8839 74.3171 71.7239 74.2638 71.5639L72.9838 68.1639H67.5838L66.2438 71.5839C66.1904 71.7439 66.1638 71.9039 66.1638 72.0639C66.1638 72.2106 66.2304 72.3773 66.3638 72.5639C66.5104 72.7373 66.7238 72.8239 67.0038 72.8239H67.1838V73.0239H63.1637V72.8239H63.3438C63.6771 72.8239 64.0038 72.7173 64.3238 72.5039C64.6438 72.2906 64.9038 71.9773 65.1038 71.5639L69.6238 60.8039C70.1171 59.7239 70.3638 59.0373 70.3638 58.7439H70.5438L75.9038 71.5639C76.0904 71.9773 76.3438 72.2906 76.6638 72.5039C76.9838 72.7173 77.3171 72.8239 77.6638 72.8239ZM67.8238 67.5639H72.7438L70.3438 61.1439L67.8238 67.5639ZM98.482 55.1039C98.9354 54.7973 99.4754 54.5573 100.102 54.3839C100.729 54.2106 101.235 54.1239 101.622 54.1239C102.009 54.1239 102.255 54.1239 102.362 54.1239V54.3239C101.735 54.3506 101.149 54.4773 100.602 54.7039C100.055 54.9173 99.602 55.1706 99.242 55.4639C98.8954 55.7439 98.5554 56.1239 98.222 56.6039C97.8887 57.0706 97.6287 57.4706 97.442 57.8039C97.2687 58.1373 97.062 58.5639 96.822 59.0839L91.262 71.2439C90.7687 72.3239 90.522 73.0106 90.522 73.3039H90.342L84.722 60.4839C84.5354 60.0573 84.2754 59.7439 83.942 59.5439C83.622 59.3306 83.2954 59.2239 82.962 59.2239H82.802V59.0239H87.302V59.2239H87.122C86.722 59.2239 86.4554 59.4106 86.322 59.7839C86.2954 59.8639 86.282 59.9573 86.282 60.0639C86.282 60.1706 86.3154 60.3039 86.382 60.4639L90.562 70.9439L95.522 59.0839C96.3087 57.2306 97.2954 55.9039 98.482 55.1039ZM100.185 60.7639C101.611 59.4173 103.458 58.7439 105.725 58.7439C108.005 58.7439 109.858 59.4173 111.285 60.7639C112.711 62.0973 113.425 63.8506 113.425 66.0239C113.425 68.1973 112.711 69.9573 111.285 71.3039C109.858 72.6373 108.005 73.3039 105.725 73.3039C103.458 73.3039 101.611 72.6373 100.185 71.3039C98.7579 69.9573 98.0445 68.1973 98.0445 66.0239C98.0445 63.8506 98.7579 62.0973 100.185 60.7639ZM101.265 70.8639C102.398 72.0906 103.885 72.7039 105.725 72.7039C107.565 72.7039 109.045 72.0906 110.165 70.8639C111.298 69.6373 111.865 68.0239 111.865 66.0239C111.865 64.0239 111.298 62.4106 110.165 61.1839C109.045 59.9573 107.565 59.3439 105.725 59.3439C103.885 59.3439 102.398 59.9573 101.265 61.1839C100.145 62.4106 99.5845 64.0239 99.5845 66.0239C99.5845 68.0239 100.145 69.6373 101.265 70.8639ZM129.81 59.0239H133.75V59.2239H133.59C133.243 59.2239 132.897 59.3306 132.55 59.5439C132.217 59.7439 131.977 60.0506 131.83 60.4639L128.51 71.0439C128.243 71.8839 128.097 72.6239 128.07 73.2639H127.89L123.81 61.8239L120.77 71.0439C120.517 71.8706 120.377 72.6106 120.35 73.2639H120.17L115.63 60.4439C115.47 60.0439 115.223 59.7439 114.89 59.5439C114.557 59.3306 114.217 59.2239 113.87 59.2239H113.71V59.0239H118.15V59.2239H117.97C117.69 59.2239 117.477 59.3173 117.33 59.5039C117.197 59.6773 117.13 59.8439 117.13 60.0039C117.13 60.1639 117.15 60.3106 117.19 60.4439L120.23 70.1839L123.95 58.7039L124.13 58.7239L128.07 69.7839L130.75 60.4239C130.79 60.2773 130.81 60.1306 130.81 59.9839C130.81 59.8239 130.743 59.6573 130.61 59.4839C130.477 59.3106 130.27 59.2239 129.99 59.2239H129.81V59.0239Z" fill="black"/>
</svg>
