<svg width="35" height="35" viewBox="0 0 35 35" fill="none" xmlns="http://www.w3.org/2000/svg">
<g id="search">
<mask id="mask0_19_19" style="mask-type:alpha" maskUnits="userSpaceOnUse" x="0" y="0" width="35" height="35">
<rect id="Bounding box" width="35" height="35" fill="#D9D9D9"/>
</mask>
<g mask="url(#mask0_19_19)">
<path id="search_2" d="M29.0122 30.8326L19.3713 21.2005C18.648 21.8145 17.8022 22.2936 16.8338 22.6375C15.8655 22.9814 14.8306 23.1534 13.729 23.1534C11.0594 23.1534 8.7996 22.2274 6.94959 20.3754C5.09957 18.5235 4.17456 16.2889 4.17456 13.6718C4.17456 11.0548 5.10055 8.82024 6.95254 6.96825C8.8045 5.11629 11.0451 4.19031 13.6743 4.19031C16.3036 4.19031 18.5381 5.11629 20.3779 6.96825C22.2177 8.82024 23.1376 11.0566 23.1376 13.6773C23.1376 14.7304 22.9719 15.7387 22.6403 16.7023C22.3088 17.6658 21.8114 18.57 21.1483 19.4148L30.8256 29.0192L29.0122 30.8326ZM13.6957 20.6695C15.6335 20.6695 17.2777 19.9859 18.6281 18.6189C19.9785 17.2518 20.6537 15.6028 20.6537 13.6718C20.6537 11.7409 19.9781 10.0919 18.6268 8.72481C17.2756 7.35775 15.6318 6.67421 13.6957 6.67421C11.7392 6.67421 10.0772 7.35775 8.70972 8.72481C7.34222 10.0919 6.65847 11.7409 6.65847 13.6718C6.65847 15.6028 7.34179 17.2518 8.70845 18.6189C10.0751 19.9859 11.7375 20.6695 13.6957 20.6695Z" fill="#FC4B90"/>
</g>
</g>
</svg>
