<svg width="1440" height="1024" viewBox="0 0 1440 1024" fill="none" xmlns="http://www.w3.org/2000/svg">
<mask id="mask0_18_317" style="mask-type:alpha" maskUnits="userSpaceOnUse" x="0" y="0" width="1440" height="1024">
<rect width="1440" height="1024" fill="#D9D9D9"/>
</mask>
<g mask="url(#mask0_18_317)">
<g filter="url(#filter0_f_18_317)">
<path d="M0 0H151L278.5 203.5L371.5 441.5L975 532.5L1441 705.5V841L1360 807L892.5 668L313.5 523.5L0 0Z" fill="#F7E8AC"/>
</g>
<g filter="url(#filter1_f_18_317)">
<path d="M-144 258H29.9486L283.96 917.888L1516 1312.47V1515L1422.69 1464.18L1082.28 1361.8L217.145 1040.45L-144 258Z" fill="#FC4B90"/>
</g>
<g filter="url(#filter2_f_18_317)">
<path d="M1328 -649H1497.02L1743.84 1.43817L2941 390.375V590L2850.33 539.91L2519.56 438.992L1678.92 122.244L1328 -649Z" fill="#FC4B90"/>
</g>
</g>
<defs>
<filter id="filter0_f_18_317" x="-510" y="-510" width="2461" height="1861" filterUnits="userSpaceOnUse" color-interpolation-filters="sRGB">
<feFlood flood-opacity="0" result="BackgroundImageFix"/>
<feBlend mode="normal" in="SourceGraphic" in2="BackgroundImageFix" result="shape"/>
<feGaussianBlur stdDeviation="255" result="effect1_foregroundBlur_18_317"/>
</filter>
<filter id="filter1_f_18_317" x="-1112" y="-710" width="3596" height="3193" filterUnits="userSpaceOnUse" color-interpolation-filters="sRGB">
<feFlood flood-opacity="0" result="BackgroundImageFix"/>
<feBlend mode="normal" in="SourceGraphic" in2="BackgroundImageFix" result="shape"/>
<feGaussianBlur stdDeviation="484" result="effect1_foregroundBlur_18_317"/>
</filter>
<filter id="filter2_f_18_317" x="739" y="-1238" width="2791" height="2417" filterUnits="userSpaceOnUse" color-interpolation-filters="sRGB">
<feFlood flood-opacity="0" result="BackgroundImageFix"/>
<feBlend mode="normal" in="SourceGraphic" in2="BackgroundImageFix" result="shape"/>
<feGaussianBlur stdDeviation="294.5" result="effect1_foregroundBlur_18_317"/>
</filter>
</defs>
</svg>
